#!OML:ASF X:\für Bonn\!DataBase\2005_08_11_Bastian_Final\c3d\Bastian.ASF
:FULLY-SPECIFIED
:DEGREES
564
root -0.319872 1.11745 26.1644 -996.103 -1.73891 -900.487
lowerback 7.4075 -0.347864 2.02081
upperback 12.614 -1.84632 0.103
thorax 9.19508 -1.45993 -1.14448
lowerneck -3.7438 -2.62545 -3.55823
upperneck 25.8649 -5.05531 -0.668335
head 8.73965 -3.78062 -0.201907
rclavicle -7.95139e-016 -2.98177e-015
rhumerus -43.3403 49.9844 -89.6438
rradius 28.5856
rwrist 2.96673
rhand -16.7218 3.37042
rfingers 7.12502
rthumb 9.50374 -26.3953
lclavicle -7.95139e-016 -2.98177e-015
lhumerus -219.916 -134.947 274.513
lradius 28.5474
lwrist 21.1496
lhand -12.458 -6.88881
lfingers 7.12502
lthumb 13.6156 22.6459
rfemur -5.30415 4.57107 23.3209
rtibia 31.8239
rfoot -4.59796 -19.2736
rtoes -10.2755
lfemur 1.42647 1.00101 -17.9666
ltibia 20.246
lfoot -8.59612 13.9314
ltoes 7.56347
565
root -0.320696 1.11938 26.1637 -996.102 -1.71732 -900.506
lowerback 7.36211 -0.372666 1.99675
upperback 12.4927 -1.85441 0.111159
thorax 9.08194 -1.45465 -1.11804
lowerneck -4.2147 -4.95001 -3.30382
upperneck 25.853 -4.52133 -1.62419
head 8.79754 -1.70041 -0.243764
rclavicle 1.55052e-014 -1.80894e-014
rhumerus -43.6972 50.116 -90.0378
rradius 28.4505
rwrist 2.79257
rhand -16.7581 3.23315
rfingers 7.12502
rthumb 9.46877 -26.5341
lclavicle 1.55052e-014 -1.80894e-014
lhumerus -220.129 -134.865 274.757
lradius 28.3872
lwrist 21.4929
lhand -12.4844 -6.74465
lfingers 7.12502
lthumb 13.5902 22.7918
rfemur -5.26084 4.52262 23.2966
rtibia 31.8129
rfoot -4.77266 -19.5218
rtoes -10.3346
lfemur 1.44599 1.04131 -17.9275
ltibia 20.2325
lfoot -8.61808 13.9326
ltoes 7.76785
566
root -0.321596 1.11989 26.1631 -996.101 -1.71583 -900.517
lowerback 7.33375 -0.383829 1.97478
upperback 12.3718 -1.84289 0.104774
thorax 8.95984 -1.43888 -1.10766
lowerneck -4.6495 -4.90459 -3.22865
upperneck 25.7722 -4.51569 -1.59064
head 8.84755 -1.7151 -0.256973
rclavicle 1.86858e-014 -1.03368e-014
rhumerus -43.9369 50.0853 -90.3292
rradius 28.281
rwrist 2.71918
rhand -16.7029 3.10703
rfingers 7.12502
rthumb 9.52201 -26.6578
lclavicle 1.86858e-014 -1.03368e-014
lhumerus -220.283 -134.834 274.947
lradius 28.1741
lwrist 21.6895
lhand -12.5421 -6.62212
lfingers 7.12502
lthumb 13.5345 22.918
rfemur -5.21563 4.43348 23.2483
rtibia 31.7968
rfoot -4.91326 -19.7481
rtoes -10.3758
lfemur 1.45084 1.05299 -17.9211
ltibia 20.2281
lfoot -8.58378 13.9741
ltoes 7.83652
567
root -0.322199 1.12097 26.1637 -996.079 -1.74157 -900.543
lowerback 7.27543 -0.399716 1.91739
upperback 12.2513 -1.83796 0.0942987
thorax 8.85591 -1.42856 -1.08293
lowerneck -5.11849 -4.8576 -3.15904
upperneck 25.742 -4.49369 -1.58934
head 8.92116 -1.7235 -0.279557
rclavicle -2.46493e-014 1.53064e-014
rhumerus -44.2221 50.1668 -90.6709
rradius 28.1436
rwrist 2.60278
rhand -16.7026 2.97412
rfingers 7.12502
rthumb 9.52228 -26.7907
lclavicle -2.46493e-014 1.53064e-014
lhumerus -220.508 -134.812 275.164
lradius 28.0176
lwrist 21.9203
lhand -12.6044 -6.5249
lfingers 7.12502
lthumb 13.4745 23.0192
rfemur -5.20131 4.38987 23.1694
rtibia 31.7903
rfoot -5.06827 -19.9922
rtoes -10.4563
lfemur 1.43965 1.12996 -17.9339
ltibia 20.2109
lfoot -8.49477 13.9581
ltoes 7.79586
568
root -0.323279 1.12134 26.1626 -996.069 -1.71797 -900.577
lowerback 7.23386 -0.41395 1.92721
upperback 12.1345 -1.83195 0.088464
thorax 8.74623 -1.41321 -1.09046
lowerneck -5.55633 -4.81486 -3.08651
upperneck 25.6687 -4.48734 -1.56639
head 8.97471 -1.73791 -0.295845
rclavicle 1.51076e-014 -1.74931e-014
rhumerus -44.5699 50.2921 -91.0617
rradius 28.0654
rwrist 2.40117
rhand -16.672 2.84425
rfingers 7.12502
rthumb 9.55182 -26.9192
lclavicle 1.51076e-014 -1.74931e-014
lhumerus -220.697 -134.803 275.337
lradius 27.8525
lwrist 22.1013
lhand -12.6287 -6.4262
lfingers 7.12502
lthumb 13.4511 23.1195
rfemur -5.18564 4.29289 23.1414
rtibia 31.785
rfoot -5.15126 -20.1853
rtoes -10.5148
lfemur 1.44278 1.19515 -17.8992
ltibia 20.1914
lfoot -8.36983 13.951
ltoes 7.82428
569
root -0.324101 1.12066 26.1616 -996.067 -1.7153 -900.577
lowerback 7.20816 -0.440411 1.89925
upperback 12.0174 -1.84366 0.0870767
thorax 8.62752 -1.41075 -1.07188
lowerneck -5.99174 -4.76852 -3.02457
upperneck 25.6122 -4.4705 -1.54616
head 9.03414 -1.74687 -0.310148
rclavicle 7.15625e-015 -1.07344e-014
rhumerus -44.9154 50.4326 -91.4527
rradius 27.96
rwrist 2.1884
rhand -16.6029 2.79486
rfingers 7.12502
rthumb 9.61852 -26.9656
lclavicle 7.15625e-015 -1.07344e-014
lhumerus -220.875 -134.865 275.505
lradius 27.6715
lwrist 22.2581
lhand -12.6934 -6.34203
lfingers 7.12502
lthumb 13.3888 23.2078
rfemur -5.15944 4.23776 23.0958
rtibia 31.7906
rfoot -5.28288 -20.4184
rtoes -10.4948
lfemur 1.45423 1.21017 -17.8902
ltibia 20.1581
lfoot -8.33095 13.9195
ltoes 8.24033
570
root -0.324884 1.12124 26.16 -996.046 -1.71874 -900.618
lowerback 7.15181 -0.454071 1.8756
upperback 11.9023 -1.83698 0.070064
thorax 8.52887 -1.39719 -1.07323
lowerneck -6.37268 -4.71597 -2.94272
upperneck 25.5108 -4.45405 -1.51128
head 9.0675 -1.75284 -0.321233
rclavicle 3.57812e-015 1.23246e-014
rhumerus -45.302 50.6341 -91.9168
rradius 27.8968
rwrist 1.9351
rhand -16.577 2.71952
rfingers 7.12502
rthumb 9.64351 -27.0397
lclavicle 3.57812e-015 1.23246e-014
lhumerus -221.066 -134.868 275.668
lradius 27.4808
lwrist 22.4099
lhand -12.7178 -6.3079
lfingers 7.12502
lthumb 13.3652 23.2434
rfemur -5.15761 4.143 23.0371
rtibia 31.8
rfoot -5.38229 -20.5778
rtoes -10.4119
lfemur 1.46029 1.22889 -17.8909
ltibia 20.1178
lfoot -8.24255 13.9181
ltoes 8.61799
571
root -0.325557 1.12095 26.158 -996.056 -1.71905 -900.648
lowerback 7.13417 -0.46528 1.85488
upperback 11.8002 -1.83083 0.0604323
thorax 8.42325 -1.38634 -1.06789
lowerneck -6.72246 -4.67456 -2.85478
upperneck 25.3847 -4.44953 -1.50181
head 9.08582 -1.76628 -0.342184
rclavicle 3.57812e-014 -3.51849e-014
rhumerus -45.6986 50.8366 -92.3708
rradius 27.8671
rwrist 1.63538
rhand -16.5232 2.66371
rfingers 7.12502
rthumb 9.69543 -27.0931
lclavicle 3.57812e-014 -3.51849e-014
lhumerus -221.24 -134.861 275.828
lradius 27.319
lwrist 22.5831
lhand -12.7638 -6.26702
lfingers 7.12502
lthumb 13.3209 23.2872
rfemur -5.12594 4.049 22.9857
rtibia 31.8144
rfoot -5.47595 -20.7218
rtoes -10.4951
lfemur 1.49541 1.21622 -17.8976
ltibia 20.0672
lfoot -8.14129 13.9517
ltoes 8.6687
572
root -0.325597 1.12091 26.1558 -996.044 -1.71853 -900.687
lowerback 7.09122 -0.486096 1.82153
upperback 11.6907 -1.83701 0.0565239
thorax 8.32399 -1.38195 -1.04999
lowerneck -7.01005 -4.62133 -2.76143
upperneck 25.2257 -4.42446 -1.51354
head 9.08029 -1.77109 -0.36741
rclavicle -1.66979e-014 1.66979e-014
rhumerus -46.1273 51.1061 -92.8618
rradius 27.85
rwrist 1.30595
rhand -16.4374 2.61712
rfingers 7.12502
rthumb 9.77821 -27.1359
lclavicle -1.66979e-014 1.66979e-014
lhumerus -221.312 -134.958 275.919
lradius 27.0622
lwrist 22.6673
lhand -12.7628 -6.31001
lfingers 7.12502
lthumb 13.3218 23.2442
rfemur -5.12192 3.95292 22.9297
rtibia 31.8215
rfoot -5.55314 -20.8346
rtoes -10.3908
lfemur 1.4991 1.25047 -17.8868
ltibia 20.0338
lfoot -8.03543 13.9151
ltoes 9.07132
573
root -0.326009 1.1203 26.1538 -996.046 -1.71829 -900.697
lowerback 7.06851 -0.502276 1.82224
upperback 11.5886 -1.83627 0.0295373
thorax 8.22073 -1.37102 -1.07513
lowerneck -7.33527 -4.57469 -2.58794
upperneck 25.1039 -4.41988 -1.5218
head 9.09242 -1.77592 -0.407735
rclavicle 4.77083e-015 -1.0138e-014
rhumerus -46.5021 51.274 -93.3308
rradius 27.8041
rwrist 1.09421
rhand -16.3819 2.58154
rfingers 7.12502
rthumb 9.8317 -27.1689
lclavicle 4.77083e-015 -1.0138e-014
lhumerus -221.488 -134.826 276.083
lradius 26.8903
lwrist 22.8514
lhand -12.7592 -6.26649
lfingers 7.12502
lthumb 13.3253 23.2875
rfemur -5.08802 3.91179 22.8903
rtibia 31.8218
rfoot -5.70185 -21.0215
rtoes -10.243
lfemur 1.50483 1.29455 -17.8735
ltibia 20.0108
lfoot -7.90865 13.8468
ltoes 9.592
574
root -0.324743 1.12033 26.1518 -996.011 -1.69499 -900.741
lowerback 6.99488 -0.523728 1.80034
upperback 11.4864 -1.84489 0.0270832
thorax 8.14751 -1.36702 -1.06339
lowerneck -7.6286 -4.51385 -2.4323
upperneck 24.9246 -4.39835 -1.52544
head 9.07927 -1.77636 -0.440788
rclavicle 3.18055e-015 8.94531e-015
rhumerus -47.0326 51.6789 -93.9447
rradius 27.8387
rwrist 0.68917
rhand -16.3346 2.50089
rfingers 7.12502
rthumb 9.87733 -27.2474
lclavicle 3.18055e-015 8.94531e-015
lhumerus -221.589 -134.796 276.198
lradius 26.6912
lwrist 23.0081
lhand -12.7798 -6.26838
lfingers 7.12502
lthumb 13.3054 23.2869
rfemur -5.10008 3.86857 22.8783
rtibia 31.8199
rfoot -5.78442 -21.1451
rtoes -10.1647
lfemur 1.48155 1.37279 -17.8342
ltibia 19.9893
lfoot -7.7433 13.7844
ltoes 9.64589
575
root -0.322516 1.11994 26.1503 -996.022 -1.69272 -900.77
lowerback 6.98464 -0.531694 1.76445
upperback 11.3836 -1.83506 0.0125787
thorax 8.03792 -1.35578 -1.05467
lowerneck -7.90652 -4.46765 -2.2046
upperneck 24.758 -4.39202 -1.59764
head 9.06395 -1.78253 -0.510129
rclavicle 3.18055e-015 -1.64991e-014
rhumerus -47.5078 51.9417 -94.5101
rradius 27.8512
rwrist 0.351997
rhand -16.2517 2.4407
rfingers 7.12502
rthumb 9.95729 -27.3038
lclavicle 3.18055e-015 -1.64991e-014
lhumerus -221.704 -134.695 276.331
lradius 26.4933
lwrist 23.1803
lhand -12.7741 -6.21035
lfingers 7.12502
lthumb 13.311 23.3445
rfemur -5.05289 3.84051 22.855
rtibia 31.8116
rfoot -5.89043 -21.2807
rtoes -10.1528
lfemur 1.48605 1.47182 -17.7965
ltibia 19.9805
lfoot -7.57492 13.6915
ltoes 9.90061
576
root -0.320138 1.11972 26.1482 -996.021 -1.69418 -900.809
lowerback 6.95459 -0.549321 1.72757
upperback 11.2909 -1.83969 -0.0123042
thorax 7.95055 -1.35171 -1.05736
lowerneck -8.24564 -4.41043 -2.03816
upperneck 24.6326 -4.37778 -1.58474
head 9.07865 -1.7813 -0.541181
rclavicle -1.35174e-014 2.16675e-014
rhumerus -47.9579 52.228 -95.0795
rradius 27.8674
rwrist 0.0795976
rhand -16.1476 2.34782
rfingers 7.12502
rthumb 10.0578 -27.3918
lclavicle -1.35174e-014 2.16675e-014
lhumerus -221.868 -134.505 276.494
lradius 26.3318
lwrist 23.4757
lhand -12.8039 -6.20591
lfingers 7.12502
lthumb 13.2822 23.3509
rfemur -5.01985 3.87334 22.8366
rtibia 31.802
rfoot -6.02112 -21.4585
rtoes -10.1454
lfemur 1.48521 1.53511 -17.7775
ltibia 19.9777
lfoot -7.42843 13.6228
ltoes 10.0342
577
root -0.317454 1.11954 26.1459 -996.001 -1.6957 -900.831
lowerback 6.90922 -0.576222 1.65802
upperback 11.1803 -1.85575 -0.0131981
thorax 7.85307 -1.35554 -1.01634
lowerneck -8.52673 -4.34554 -1.87695
upperneck 24.4711 -4.34273 -1.61535
head 9.06914 -1.77531 -0.582242
rclavicle 0 1.0138e-014
rhumerus -48.4823 52.5522 -95.6695
rradius 27.9064
rwrist -0.259908
rhand -16.0709 2.24848
rfingers 7.12502
rthumb 10.1318 -27.4876
lclavicle 0 1.0138e-014
lhumerus -222.087 -134.292 276.733
lradius 26.2055
lwrist 23.7955
lhand -12.8101 -6.15284
lfingers 7.12502
lthumb 13.2762 23.4043
rfemur -5.01192 3.84393 22.8068
rtibia 31.7965
rfoot -6.1235 -21.568
rtoes -10.0705
lfemur 1.46398 1.61045 -17.7544
ltibia 19.9649
lfoot -7.26818 13.5416
ltoes 10.3933
